# xmcd
#
# Track frame offsets:
#	150
#	17833
#	35642
#	50563
#	65847
#	80051
#	95177
#	112533
#	128009
#	138487
#	156538
#
# Disc length: 2281 seconds
#
# Revision: 0
# Processed by: cddbd v1.5.2PL0 Copyright (c) Steve Scherf et al.
# Submitted via: EasyCDDAExtractor 16.0.1.1
#
DISCID=9d08e70b
DTITLE=Paul Alan Coons - Everything She Touches Turns To Love
DYEAR=2001
DGENRE=Country
TTITLE0=I'm Free
TTITLE1=Everything She Touches (Turns To Love)
TTITLE2=I Recall A Gypsy Woman
TTITLE3=The Eagle
TTITLE4=It Don't Get Any Better Than This
TTITLE5=The Phone Call
TTITLE6=Country State Of Mind
TTITLE7=Even The Bad We Had Was Good
TTITLE8=I'm It
TTITLE9=When
TTITLE10=Goodbye Ole Friend
EXTD=
EXTT0=
EXTT1=
EXTT2=
EXTT3=
EXTT4=
EXTT5=
EXTT6=
EXTT7=
EXTT8=
EXTT9=
EXTT10=
PLAYORDER=
